 http://www.shotpix.com/images/55752000874579679607.jpg

 
http://uk.imdb.com/title/tt1446192/


Plot: When the evil spirit Pitch launches an assault on Earth, the Immortal Guardians team up to protect the innocence of children all around the world.
 


Director: 
Peter Ramsey

 Writers: 
David Lindsay-Abaire (screenplay), William Joyce (book)
 
Stars:
 Hugh Jackman, Alec Baldwin and Isla Fisher 

Genres:
 Animation | Adventure | Family | Fantasy 


Sources                            : Video - MATiNE 720p files - Thanks!
                                         : Audio - echo/MATiNE




Format                                   : MPEG-4
Format profile                           : Base Media
Codec ID                                 : isom
File size                                : 1.44 GiB
Duration                                 : 1h 27mn
Overall bit rate mode                    : Variable
Overall bit rate                         : 2 351 Kbps
Encoded date                             : UTC 2012-11-29 12:32:49
Tagged date                              : UTC 2012-11-29 12:32:49

Video
ID                                       : 1
Format                                   : AVC
Format/Info                              : Advanced Video Codec
Format profile                           : High@L4.1
Format settings, CABAC                   : Yes
Format settings, ReFrames                : 3 frames
Codec ID                                 : avc1
Codec ID/Info                            : Advanced Video Coding
Duration                                 : 1h 27mn
Bit rate mode                            : Variable
Bit rate                                 : 2 212 Kbps
Maximum bit rate                         : 40.0 Mbps
Width                                    : 720 pixels
Height                                   : 354 pixels
Display aspect ratio                     : 2.034
Frame rate mode                          : Constant
Frame rate                               : 29.970 fps
Color space                              : YUV
Chroma subsampling                       : 4:2:0
Bit depth                                : 8 bits
Scan type                                : Progressive
Bits/(Pixel*Frame)                       : 0.290
Stream size                              : 1.35 GiB (94%)
Writing library                          : x264 core 129 r2230 1cffe9f
Encoding settings                        : cabac=1 / ref=4 / deblock=1:-1:-1 / analyse=0x3:0x113 / me=umh / subme=9 / psy=1 / psy_rd=1.00:0.15 / mixed_ref=1 / me_range=18 / chroma_me=1 / trellis=2 / 8x8dct=1 / cqm=0 / deadzone=21,11 / fast_pskip=0 / chroma_qp_offset=-3 / threads=6 / lookahead_threads=1 / sliced_threads=0 / slices=4 / nr=0 / decimate=1 / interlaced=0 / bluray_compat=0 / constrained_intra=0 / bframes=3 / b_pyramid=1 / b_adapt=2 / b_bias=0 / direct=1 / weightb=1 / open_gop=0 / weightp=0 / keyint=29 / keyint_min=2 / scenecut=40 / intra_refresh=0 / rc_lookahead=29 / rc=2pass / mbtree=1 / bitrate=2212 / ratetol=1.0 / qcomp=0.60 / qpmin=10 / qpmax=51 / qpstep=4 / cplxblur=20.0 / qblur=0.5 / vbv_maxrate=40000 / vbv_bufsize=30000 / nal_hrd=vbr / ip_ratio=1.40 / aq=1:1.00
Encoded date                             : UTC 2012-11-29 12:32:49
Tagged date                              : UTC 2012-11-29 12:34:52
Color primaries                          : BT.709-5, BT.1361, IEC 61966-2-4, SMPTE RP177
Transfer characteristics                 : BT.709-5, BT.1361
Matrix coefficients                      : BT.709-5, BT.1361, IEC 61966-2-4 709, SMPTE RP177

Audio
ID                                       : 2
Format                                   : AAC
Format/Info                              : Advanced Audio Codec
Format profile                           : LC
Codec ID                                 : 40
Duration                                 : 1h 27mn
Bit rate mode                            : Variable
Bit rate                                 : 135 Kbps
Maximum bit rate                         : 153 Kbps
Channel(s)                               : 2 channels
Channel positions                        : Front: L R
Sampling rate                            : 48.0 KHz
Compression mode                         : Lossy
Stream size                              : 84.2 MiB (6%)
Language                                 : English
Encoded date                             : UTC 2012-11-29 12:34:50
Tagged date                              : UTC 2012-11-29 12:34:52

 
http://www.shotpix.com/images/65141576775947548939.png 
http://www.shotpix.com/images/78253976301485749404.png 
http://www.shotpix.com/images/90949463894147474490.png